<mxfile host="app.diagrams.net" modified="2023-01-29T13:03:24.449Z" agent="5.0 (Windows NT 10.0; Win64; x64) AppleWebKit/537.36 (KHTML, like Gecko) Chrome/109.0.0.0 Safari/537.36" etag="7pd6qs2_nMWpnzRYMceb" version="20.8.13" type="github">
  <diagram id="R2lEEEUBdFMjLlhIrx00" name="Page-1">
    <mxGraphModel dx="1434" dy="1864" grid="1" gridSize="10" guides="1" tooltips="1" connect="1" arrows="1" fold="1" page="1" pageScale="1" pageWidth="850" pageHeight="1100" math="0" shadow="0" extFonts="Permanent Marker^https://fonts.googleapis.com/css?family=Permanent+Marker">
      <root>
        <mxCell id="0" />
        <mxCell id="1" parent="0" />
        <mxCell id="IIPwtAXMGbfm8s9mK-UW-1" value="Product" style="swimlane;childLayout=stackLayout;horizontal=1;startSize=30;horizontalStack=0;rounded=1;fontSize=14;fontStyle=0;strokeWidth=2;resizeParent=0;resizeLast=1;shadow=0;dashed=0;align=center;" vertex="1" parent="1">
          <mxGeometry x="20" width="230" height="100" as="geometry">
            <mxRectangle x="50" y="30" width="80" height="30" as="alternateBounds" />
          </mxGeometry>
        </mxCell>
        <mxCell id="IIPwtAXMGbfm8s9mK-UW-2" value="+Id: PK INT&#xa;+ name:VARCHAR(60)&#xa;+description:VARCHAR(255)&#xa;+category:FK Category INT" style="align=left;strokeColor=none;fillColor=none;spacingLeft=4;fontSize=12;verticalAlign=top;resizable=0;rotatable=0;part=1;" vertex="1" parent="IIPwtAXMGbfm8s9mK-UW-1">
          <mxGeometry y="30" width="230" height="70" as="geometry" />
        </mxCell>
        <mxCell id="IIPwtAXMGbfm8s9mK-UW-7" style="edgeStyle=orthogonalEdgeStyle;rounded=0;orthogonalLoop=1;jettySize=auto;html=1;exitX=0.5;exitY=1;exitDx=0;exitDy=0;" edge="1" parent="IIPwtAXMGbfm8s9mK-UW-1" source="IIPwtAXMGbfm8s9mK-UW-2" target="IIPwtAXMGbfm8s9mK-UW-2">
          <mxGeometry relative="1" as="geometry" />
        </mxCell>
        <mxCell id="IIPwtAXMGbfm8s9mK-UW-3" value="category" style="swimlane;childLayout=stackLayout;horizontal=1;startSize=30;horizontalStack=0;rounded=1;fontSize=14;fontStyle=0;strokeWidth=2;resizeParent=0;resizeLast=1;shadow=0;dashed=0;align=center;" vertex="1" parent="1">
          <mxGeometry x="320" y="-70" width="230" height="70" as="geometry">
            <mxRectangle x="50" y="30" width="80" height="30" as="alternateBounds" />
          </mxGeometry>
        </mxCell>
        <mxCell id="IIPwtAXMGbfm8s9mK-UW-4" value="+Id: PK INT&#xa;+ name:VARCHAR(60)&#xa;" style="align=left;strokeColor=none;fillColor=none;spacingLeft=4;fontSize=12;verticalAlign=top;resizable=0;rotatable=0;part=1;" vertex="1" parent="IIPwtAXMGbfm8s9mK-UW-3">
          <mxGeometry y="30" width="230" height="40" as="geometry" />
        </mxCell>
        <mxCell id="IIPwtAXMGbfm8s9mK-UW-8" value="" style="edgeStyle=entityRelationEdgeStyle;fontSize=12;html=1;endArrow=ERzeroToMany;endFill=1;rounded=0;exitX=0;exitY=0;exitDx=0;exitDy=0;entryX=1;entryY=0.75;entryDx=0;entryDy=0;" edge="1" parent="1" source="IIPwtAXMGbfm8s9mK-UW-4" target="IIPwtAXMGbfm8s9mK-UW-2">
          <mxGeometry width="100" height="100" relative="1" as="geometry">
            <mxPoint x="370" y="130" as="sourcePoint" />
            <mxPoint x="470" y="30" as="targetPoint" />
          </mxGeometry>
        </mxCell>
        <mxCell id="IIPwtAXMGbfm8s9mK-UW-9" value="User" style="swimlane;childLayout=stackLayout;horizontal=1;startSize=30;horizontalStack=0;rounded=1;fontSize=14;fontStyle=0;strokeWidth=2;resizeParent=0;resizeLast=1;shadow=0;dashed=0;align=center;" vertex="1" parent="1">
          <mxGeometry x="150" y="170" width="205" height="100" as="geometry" />
        </mxCell>
        <mxCell id="IIPwtAXMGbfm8s9mK-UW-10" value="+Id: PK INT&#xa;+name: VARCHAR(60)&#xa;+username:VARCHAR(60) UNIQUE&#xa;+email:VARCHAR(120) UNIQUE" style="align=left;strokeColor=none;fillColor=none;spacingLeft=4;fontSize=12;verticalAlign=top;resizable=0;rotatable=0;part=1;" vertex="1" parent="IIPwtAXMGbfm8s9mK-UW-9">
          <mxGeometry y="30" width="205" height="70" as="geometry" />
        </mxCell>
        <mxCell id="IIPwtAXMGbfm8s9mK-UW-11" value="admin" style="swimlane;childLayout=stackLayout;horizontal=1;startSize=30;horizontalStack=0;rounded=1;fontSize=14;fontStyle=0;strokeWidth=2;resizeParent=0;resizeLast=1;shadow=0;dashed=0;align=center;" vertex="1" parent="1">
          <mxGeometry x="480" y="280" width="230" height="100" as="geometry" />
        </mxCell>
        <mxCell id="IIPwtAXMGbfm8s9mK-UW-12" value="+Id: PK INT&#xa;+check_announcement:Delete&#xa;+ User_id: FK INT&#xa;+role_id: FK INT" style="align=left;strokeColor=none;fillColor=none;spacingLeft=4;fontSize=12;verticalAlign=top;resizable=0;rotatable=0;part=1;" vertex="1" parent="IIPwtAXMGbfm8s9mK-UW-11">
          <mxGeometry y="30" width="230" height="70" as="geometry" />
        </mxCell>
        <mxCell id="IIPwtAXMGbfm8s9mK-UW-13" value="Customer" style="swimlane;childLayout=stackLayout;horizontal=1;startSize=30;horizontalStack=0;rounded=1;fontSize=14;fontStyle=0;strokeWidth=2;resizeParent=0;resizeLast=1;shadow=0;dashed=0;align=center;" vertex="1" parent="1">
          <mxGeometry x="480" y="80" width="190" height="100" as="geometry" />
        </mxCell>
        <mxCell id="IIPwtAXMGbfm8s9mK-UW-14" value="+Id: PK INT&#xa;+announcement:VARCHAR(300)&#xa;+delete_announcement:Delete&#xa;+ User_id: FK INT" style="align=left;strokeColor=none;fillColor=none;spacingLeft=4;fontSize=12;verticalAlign=top;resizable=0;rotatable=0;part=1;" vertex="1" parent="IIPwtAXMGbfm8s9mK-UW-13">
          <mxGeometry y="30" width="190" height="70" as="geometry" />
        </mxCell>
        <mxCell id="IIPwtAXMGbfm8s9mK-UW-17" value="" style="edgeStyle=entityRelationEdgeStyle;fontSize=12;html=1;endArrow=ERmandOne;startArrow=ERmandOne;rounded=0;exitX=1;exitY=0.143;exitDx=0;exitDy=0;exitPerimeter=0;entryX=0;entryY=0.75;entryDx=0;entryDy=0;" edge="1" parent="1" source="IIPwtAXMGbfm8s9mK-UW-10" target="IIPwtAXMGbfm8s9mK-UW-14">
          <mxGeometry width="100" height="100" relative="1" as="geometry">
            <mxPoint x="370" y="130" as="sourcePoint" />
            <mxPoint x="470" y="30" as="targetPoint" />
          </mxGeometry>
        </mxCell>
        <mxCell id="IIPwtAXMGbfm8s9mK-UW-18" value="" style="edgeStyle=entityRelationEdgeStyle;fontSize=12;html=1;endArrow=ERmandOne;startArrow=ERmandOne;rounded=0;exitX=0.976;exitY=0.157;exitDx=0;exitDy=0;exitPerimeter=0;" edge="1" parent="1" source="IIPwtAXMGbfm8s9mK-UW-10">
          <mxGeometry width="100" height="100" relative="1" as="geometry">
            <mxPoint x="385" y="450" as="sourcePoint" />
            <mxPoint x="485" y="350" as="targetPoint" />
          </mxGeometry>
        </mxCell>
      </root>
    </mxGraphModel>
  </diagram>
</mxfile>
